<?xml version="1.0" standalone="no"?>
<!DOCTYPE svg PUBLIC "-//W3C//DTD SVG 20010904//EN"
 "http://www.w3.org/TR/2001/REC-SVG-20010904/DTD/svg10.dtd">
<svg version="1.0" xmlns="http://www.w3.org/2000/svg"
 width="200.000000pt" height="101.000000pt" viewBox="0 0 200.000000 101.000000"
 preserveAspectRatio="xMidYMid meet">

<g transform="translate(0.000000,101.000000) scale(0.100000,-0.100000)"
fill="#000000" stroke="none">
<path d="M50 937 c0 -25 1 -25 108 -28 102 -4 111 -6 146 -33 64 -48 66 -62
66 -376 0 -312 -4 -334 -62 -370 -28 -17 -50 -20 -145 -20 l-113 0 0 -30 0
-31 793 4 c849 4 845 4 962 56 89 40 135 103 135 188 0 95 -74 174 -200 214
-39 13 -70 25 -70 28 0 4 25 19 55 35 87 45 135 114 135 195 0 42 -39 109 -77
132 -84 52 -88 53 -940 56 l-793 4 0 -24z m510 -427 l0 -400 -50 0 -50 0 0
400 0 400 50 0 50 0 0 -400z m660 373 c102 -42 138 -154 79 -250 -11 -18 -40
-42 -67 -54 -42 -21 -62 -23 -182 -24 l-135 0 -3 80 c-7 174 22 243 111 264
51 12 149 4 197 -16z m250 -38 c88 -61 94 -171 13 -235 -28 -22 -93 -53 -99
-47 -2 2 8 25 21 52 35 68 35 154 0 220 l-26 47 28 -6 c15 -4 44 -18 63 -31z
m-193 -363 c23 -12 54 -38 70 -59 25 -33 28 -44 28 -118 0 -73 -3 -85 -27
-117 -47 -61 -99 -78 -240 -78 -182 1 -190 10 -196 244 l-4 158 163 -4 c145
-3 169 -6 206 -26z m257 -46 c104 -97 77 -223 -64 -300 -57 -31 -75 -28 -42 7
79 84 82 225 7 323 -14 18 -25 35 -25 38 0 14 87 -33 124 -68z"/>
</g>
</svg>
